<mxfile host="app.diagrams.net" modified="2021-01-26T18:01:02.757Z" agent="5.0 (Windows NT 10.0; Win64; x64) AppleWebKit/537.36 (KHTML, like Gecko) Chrome/87.0.4280.141 Safari/537.36" etag="HrKvTFnoja0C35AitSpr" version="14.2.7" type="github">
  <diagram name="Page-1" id="e7e014a7-5840-1c2e-5031-d8a46d1fe8dd">
    <mxGraphModel dx="5321" dy="4570" grid="1" gridSize="10" guides="1" tooltips="1" connect="1" arrows="1" fold="1" page="1" pageScale="1" pageWidth="1169" pageHeight="826" background="#ffffff" math="0" shadow="0">
      <root>
        <mxCell id="0" />
        <mxCell id="1" parent="0" />
        <mxCell id="tZTCFBPOr5Kg1gLBSGt5-96" value="&lt;font color=&quot;#ff230a&quot;&gt;&lt;span style=&quot;font-size: 30px&quot;&gt;PERFIL DE ADMINISTRADOR:&lt;/span&gt;&lt;/font&gt;" style="html=1;strokeColor=none;fillColor=#0079D6;labelPosition=center;verticalLabelPosition=middle;verticalAlign=top;align=center;fontSize=12;outlineConnect=0;spacingTop=-6;fontColor=#FFFFFF;shape=mxgraph.sitemap.profile;" parent="1" vertex="1">
          <mxGeometry x="-730" y="-10" width="760" height="410" as="geometry" />
        </mxCell>
        <mxCell id="tZTCFBPOr5Kg1gLBSGt5-111" value="&lt;span style=&quot;font-size: 30px&quot;&gt;NUEVO SERVICIO&lt;/span&gt;" style="html=1;strokeColor=none;fillColor=#0079D6;labelPosition=center;verticalLabelPosition=middle;verticalAlign=top;align=center;fontSize=12;outlineConnect=0;spacingTop=-6;fontColor=#FFFFFF;shape=mxgraph.sitemap.services;" parent="1" vertex="1">
          <mxGeometry x="420" y="500" width="650" height="370" as="geometry" />
        </mxCell>
        <mxCell id="tZTCFBPOr5Kg1gLBSGt5-44" value="&lt;font style=&quot;font-size: 30px&quot; color=&quot;#ff2605&quot;&gt;INDEX HTML&lt;/font&gt;" style="html=1;strokeColor=none;fillColor=#0079D6;labelPosition=center;verticalLabelPosition=middle;verticalAlign=top;align=center;fontSize=12;outlineConnect=0;spacingTop=-6;fontColor=#FFFFFF;shape=mxgraph.sitemap.page;" parent="1" vertex="1">
          <mxGeometry x="-570" y="-1630" width="1770" height="870" as="geometry" />
        </mxCell>
        <mxCell id="tZTCFBPOr5Kg1gLBSGt5-45" value="GymASIA" style="fontSize=35;fontStyle=1;fillColor=#dae8fc;strokeColor=#6c8ebf;" parent="1" vertex="1">
          <mxGeometry x="-510" y="-1610" width="240" height="100" as="geometry" />
        </mxCell>
        <mxCell id="tZTCFBPOr5Kg1gLBSGt5-46" value="&lt;span style=&quot;font-size: 20px&quot;&gt;&lt;b&gt;SUSCRIPCIÓN:&lt;/b&gt;&lt;/span&gt;&lt;br&gt;&lt;br&gt;Compra una membresía y disfruta de nuestros planes las 24hrs los 365 días del año!&lt;br&gt;" style="html=1;shadow=0;dashed=0;shape=mxgraph.bootstrap.rrect;rSize=5;strokeColor=#DFDFDF;html=1;whiteSpace=wrap;fillColor=#ffffff;fontColor=#000000;verticalAlign=top;align=left;spacing=20;spacingBottom=0;fontSize=14;spacingTop=160;" parent="1" vertex="1">
          <mxGeometry x="-530" y="-1300" width="370" height="330" as="geometry" />
        </mxCell>
        <mxCell id="tZTCFBPOr5Kg1gLBSGt5-47" value="Image cap" style="html=1;shadow=0;dashed=0;shape=mxgraph.bootstrap.topButton;rSize=5;perimeter=none;whiteSpace=wrap;fillColor=#868E96;strokeColor=#DFDFDF;fontColor=#DEE2E6;resizeWidth=1;fontSize=18;" parent="tZTCFBPOr5Kg1gLBSGt5-46" vertex="1">
          <mxGeometry width="370" height="160" relative="1" as="geometry" />
        </mxCell>
        <mxCell id="tZTCFBPOr5Kg1gLBSGt5-64" value="Consulta planes" style="html=1;shadow=0;dashed=0;shape=mxgraph.bootstrap.rrect;rSize=5;strokeColor=#1CA5B8;strokeWidth=1;fillColor=none;fontColor=#1CA5B8;whiteSpace=wrap;align=center;verticalAlign=middle;spacingLeft=0;fontStyle=0;fontSize=16;spacing=5;" parent="tZTCFBPOr5Kg1gLBSGt5-46" vertex="1">
          <mxGeometry x="270" y="273.1034482758621" width="90" height="45.51724137931035" as="geometry" />
        </mxCell>
        <mxCell id="tZTCFBPOr5Kg1gLBSGt5-60" value="ADMINISTRADOR@example.com" style="strokeColor=none;fillColor=none;whiteSpace=wrap;align=left;verticalAlign=middle;fontStyle=1;fontSize=20;fontColor=#FFFFFF;" parent="1" vertex="1">
          <mxGeometry x="490" y="-1490" width="230" height="40" as="geometry" />
        </mxCell>
        <mxCell id="tZTCFBPOr5Kg1gLBSGt5-61" value="Password" style="html=1;shadow=0;dashed=0;shape=mxgraph.bootstrap.rrect;rSize=5;strokeColor=#999999;fillColor=#ffffff;fontColor=#777777;whiteSpace=wrap;align=left;verticalAlign=middle;fontStyle=0;fontSize=14;spacing=15;" parent="1" vertex="1">
          <mxGeometry x="820" y="-1490" width="200" height="40" as="geometry" />
        </mxCell>
        <mxCell id="tZTCFBPOr5Kg1gLBSGt5-62" value="Confirm identity" style="html=1;shadow=0;dashed=0;shape=mxgraph.bootstrap.rrect;rSize=5;strokeColor=none;fillColor=#0085FC;fontColor=#ffffff;whiteSpace=wrap;align=center;verticalAlign=middle;fontStyle=0;fontSize=14;spacing=14;" parent="1" vertex="1">
          <mxGeometry x="1040" y="-1490" width="125" height="40" as="geometry" />
        </mxCell>
        <mxCell id="tZTCFBPOr5Kg1gLBSGt5-65" value="&lt;span style=&quot;font-size: 20px&quot;&gt;&lt;b&gt;PASE DIARIO:&lt;/b&gt;&lt;/span&gt;&lt;br&gt;&lt;br&gt;Compra un Pase Diario y disfruta de nuestro GYM todo un día, las clases que tú elijas!" style="html=1;shadow=0;dashed=0;shape=mxgraph.bootstrap.rrect;rSize=5;strokeColor=#DFDFDF;html=1;whiteSpace=wrap;fillColor=#ffffff;fontColor=#000000;verticalAlign=top;align=left;spacing=20;spacingBottom=0;fontSize=14;spacingTop=160;" parent="1" vertex="1">
          <mxGeometry x="-110" y="-1300" width="370" height="330" as="geometry" />
        </mxCell>
        <mxCell id="tZTCFBPOr5Kg1gLBSGt5-66" value="Image cap" style="html=1;shadow=0;dashed=0;shape=mxgraph.bootstrap.topButton;rSize=5;perimeter=none;whiteSpace=wrap;fillColor=#868E96;strokeColor=#DFDFDF;fontColor=#DEE2E6;resizeWidth=1;fontSize=18;" parent="tZTCFBPOr5Kg1gLBSGt5-65" vertex="1">
          <mxGeometry width="370" height="160" relative="1" as="geometry" />
        </mxCell>
        <mxCell id="tZTCFBPOr5Kg1gLBSGt5-67" value="Consulta Pases Diarios" style="html=1;shadow=0;dashed=0;shape=mxgraph.bootstrap.rrect;rSize=5;strokeColor=#1CA5B8;strokeWidth=1;fillColor=none;fontColor=#1CA5B8;whiteSpace=wrap;align=center;verticalAlign=middle;spacingLeft=0;fontStyle=0;fontSize=16;spacing=5;" parent="tZTCFBPOr5Kg1gLBSGt5-65" vertex="1">
          <mxGeometry x="240" y="273.1" width="120" height="45.52" as="geometry" />
        </mxCell>
        <mxCell id="tZTCFBPOr5Kg1gLBSGt5-68" value="&lt;span style=&quot;font-size: 20px&quot;&gt;&lt;b&gt;Merchandising:&lt;/b&gt;&lt;/span&gt;&lt;br&gt;&lt;br&gt;Te gusta nuestro estílo? Entonces compra nuestros productos únicos!" style="html=1;shadow=0;dashed=0;shape=mxgraph.bootstrap.rrect;rSize=5;strokeColor=#DFDFDF;html=1;whiteSpace=wrap;fillColor=#ffffff;fontColor=#000000;verticalAlign=top;align=left;spacing=20;spacingBottom=0;fontSize=14;spacingTop=160;" parent="1" vertex="1">
          <mxGeometry x="320" y="-1300" width="370" height="330" as="geometry" />
        </mxCell>
        <mxCell id="tZTCFBPOr5Kg1gLBSGt5-69" value="Image cap" style="html=1;shadow=0;dashed=0;shape=mxgraph.bootstrap.topButton;rSize=5;perimeter=none;whiteSpace=wrap;fillColor=#868E96;strokeColor=#DFDFDF;fontColor=#DEE2E6;resizeWidth=1;fontSize=18;" parent="tZTCFBPOr5Kg1gLBSGt5-68" vertex="1">
          <mxGeometry width="370" height="160" relative="1" as="geometry" />
        </mxCell>
        <mxCell id="tZTCFBPOr5Kg1gLBSGt5-70" value="Consulta Merchandising" style="html=1;shadow=0;dashed=0;shape=mxgraph.bootstrap.rrect;rSize=5;strokeColor=#1CA5B8;strokeWidth=1;fillColor=none;fontColor=#1CA5B8;whiteSpace=wrap;align=center;verticalAlign=middle;spacingLeft=0;fontStyle=0;fontSize=16;spacing=5;" parent="tZTCFBPOr5Kg1gLBSGt5-68" vertex="1">
          <mxGeometry x="240" y="273.1" width="120" height="45.52" as="geometry" />
        </mxCell>
        <mxCell id="tZTCFBPOr5Kg1gLBSGt5-71" value="&lt;span style=&quot;font-size: 20px&quot;&gt;&lt;b&gt;Formas de Pago:&lt;/b&gt;&lt;/span&gt;&lt;br&gt;&lt;br&gt;Aceptamos todo medio de pago." style="html=1;shadow=0;dashed=0;shape=mxgraph.bootstrap.rrect;rSize=5;strokeColor=#DFDFDF;html=1;whiteSpace=wrap;fillColor=#ffffff;fontColor=#000000;verticalAlign=top;align=left;spacing=20;spacingBottom=0;fontSize=14;spacingTop=160;" parent="1" vertex="1">
          <mxGeometry x="750" y="-1300" width="370" height="330" as="geometry" />
        </mxCell>
        <mxCell id="tZTCFBPOr5Kg1gLBSGt5-72" value="Image cap" style="html=1;shadow=0;dashed=0;shape=mxgraph.bootstrap.topButton;rSize=5;perimeter=none;whiteSpace=wrap;fillColor=#868E96;strokeColor=#DFDFDF;fontColor=#DEE2E6;resizeWidth=1;fontSize=18;" parent="tZTCFBPOr5Kg1gLBSGt5-71" vertex="1">
          <mxGeometry width="370" height="160" relative="1" as="geometry" />
        </mxCell>
        <mxCell id="tZTCFBPOr5Kg1gLBSGt5-74" value="INICIO" style="html=1;shadow=0;dashed=0;fillColor=#0085FC;strokeColor=none;fontSize=16;fontColor=#ffffff;align=left;spacing=15;" parent="1" vertex="1">
          <mxGeometry x="-240" y="-1580" width="1375" height="60" as="geometry" />
        </mxCell>
        <mxCell id="tZTCFBPOr5Kg1gLBSGt5-75" value="SUSCRIPCIONES" style="fillColor=none;strokeColor=none;fontSize=14;fontColor=#ffffff;align=center;" parent="tZTCFBPOr5Kg1gLBSGt5-74" vertex="1">
          <mxGeometry width="70" height="40" relative="1" as="geometry">
            <mxPoint x="200" y="10" as="offset" />
          </mxGeometry>
        </mxCell>
        <mxCell id="tZTCFBPOr5Kg1gLBSGt5-76" value="PASE DIARIO" style="fillColor=none;strokeColor=none;fontSize=14;fontColor=#79BFFD;align=center;" parent="tZTCFBPOr5Kg1gLBSGt5-74" vertex="1">
          <mxGeometry width="70" height="40" relative="1" as="geometry">
            <mxPoint x="360" y="10" as="offset" />
          </mxGeometry>
        </mxCell>
        <mxCell id="tZTCFBPOr5Kg1gLBSGt5-77" value="MERCHANDISING" style="fillColor=none;strokeColor=none;fontSize=14;fontColor=#79BFFD;align=center;spacingRight=0;" parent="tZTCFBPOr5Kg1gLBSGt5-74" vertex="1">
          <mxGeometry width="80" height="40" relative="1" as="geometry">
            <mxPoint x="520" y="10" as="offset" />
          </mxGeometry>
        </mxCell>
        <mxCell id="tZTCFBPOr5Kg1gLBSGt5-78" value="SOBRE NOSOTROS" style="fillColor=none;strokeColor=none;fontSize=14;fontColor=#79BFFD;align=center;" parent="tZTCFBPOr5Kg1gLBSGt5-74" vertex="1">
          <mxGeometry width="80" height="40" relative="1" as="geometry">
            <mxPoint x="710" y="10" as="offset" />
          </mxGeometry>
        </mxCell>
        <mxCell id="tZTCFBPOr5Kg1gLBSGt5-79" value="Search" style="html=1;shadow=0;dashed=0;shape=mxgraph.bootstrap.rrect;rSize=5;fontSize=14;fontColor=#ffffff;strokeColor=#ffffff;fillColor=none;" parent="tZTCFBPOr5Kg1gLBSGt5-74" vertex="1">
          <mxGeometry x="1" width="70" height="40" relative="1" as="geometry">
            <mxPoint x="-80" y="10" as="offset" />
          </mxGeometry>
        </mxCell>
        <mxCell id="tZTCFBPOr5Kg1gLBSGt5-80" value="Search" style="html=1;shadow=0;dashed=0;shape=mxgraph.bootstrap.rrect;rSize=5;fontSize=14;fontColor=#6C767D;strokeColor=#CED4DA;fillColor=#ffffff;align=left;spacing=10;" parent="tZTCFBPOr5Kg1gLBSGt5-74" vertex="1">
          <mxGeometry x="1" width="180" height="40" relative="1" as="geometry">
            <mxPoint x="-270" y="10" as="offset" />
          </mxGeometry>
        </mxCell>
        <mxCell id="tZTCFBPOr5Kg1gLBSGt5-81" value="INICIO SESIÓN: ADMINISTRADOR:" style="fillColor=none;strokeColor=none;fontSize=14;fontColor=#79BFFD;align=center;" parent="1" vertex="1">
          <mxGeometry x="455" y="-1520" width="295" height="40" as="geometry" />
        </mxCell>
        <mxCell id="tZTCFBPOr5Kg1gLBSGt5-82" value="&lt;font&gt;&lt;span style=&quot;font-size: 20px&quot;&gt;&lt;b&gt;SELECT * FROM suscripcion;&lt;/b&gt;&lt;/span&gt;&lt;br&gt;&lt;/font&gt;&lt;br&gt;Esta consulta mostrará toda la información de la tabla &quot;suscripción&quot;, ya que necesitamos mostrar Planes y sus valores.." style="html=1;shadow=0;dashed=0;shape=mxgraph.bootstrap.rrect;rSize=5;strokeColor=#F8F9FA;html=1;whiteSpace=wrap;fillColor=#ffffff;fontColor=#212529;verticalAlign=bottom;align=left;spacing=20;spacingBottom=0;fontSize=14;" parent="1" vertex="1">
          <mxGeometry x="-530" y="-670" width="350" height="180" as="geometry" />
        </mxCell>
        <mxCell id="tZTCFBPOr5Kg1gLBSGt5-83" value="Consulta Planes:" style="html=1;shadow=0;dashed=0;shape=mxgraph.bootstrap.topButton;rSize=5;perimeter=none;whiteSpace=wrap;fillColor=#F7F7F7;strokeColor=#F8F9FA;fontColor=#6C767D;resizeWidth=1;fontSize=18;align=left;spacing=20;" parent="tZTCFBPOr5Kg1gLBSGt5-82" vertex="1">
          <mxGeometry width="350" height="50" relative="1" as="geometry" />
        </mxCell>
        <object placeholders="1" c4Type="Relationship" c4Technology="" c4Description="BOTÓN CONSULTA" label="&lt;div style=&quot;text-align: left&quot;&gt;&lt;div style=&quot;text-align: center&quot;&gt;&lt;b&gt;%c4Description%&lt;/b&gt;&lt;/div&gt;&lt;div style=&quot;text-align: center&quot;&gt;[%c4Technology%]&lt;/div&gt;&lt;/div&gt;" id="tZTCFBPOr5Kg1gLBSGt5-84">
          <mxCell style="edgeStyle=none;rounded=0;html=1;entryX=0.571;entryY=0;jettySize=auto;orthogonalLoop=1;strokeColor=#707070;strokeWidth=2;fontColor=#707070;jumpStyle=none;dashed=1;metaEdit=1;metaData={&quot;c4Type&quot;:{&quot;editable&quot;:false}};entryDx=0;entryDy=0;entryPerimeter=0;exitX=0.556;exitY=1;exitDx=0;exitDy=0;exitPerimeter=0;" parent="1" source="tZTCFBPOr5Kg1gLBSGt5-64" target="tZTCFBPOr5Kg1gLBSGt5-83" edge="1">
            <mxGeometry x="0.2228" y="-2" width="160" relative="1" as="geometry">
              <mxPoint x="-630" y="-1070" as="sourcePoint" />
              <mxPoint x="-470" y="-1070" as="targetPoint" />
              <mxPoint as="offset" />
            </mxGeometry>
          </mxCell>
        </object>
        <mxCell id="tZTCFBPOr5Kg1gLBSGt5-85" value="&lt;font&gt;&lt;span style=&quot;font-size: 20px&quot;&gt;&lt;b&gt;SELECT * FROM pase_diario;&lt;/b&gt;&lt;/span&gt;&lt;br&gt;&lt;/font&gt;&lt;br&gt;Esta consulta mostrará toda la información de la tabla &quot;pase diario&quot;, ya que necesitamos mostrar Planes y sus valores.." style="html=1;shadow=0;dashed=0;shape=mxgraph.bootstrap.rrect;rSize=5;strokeColor=#F8F9FA;html=1;whiteSpace=wrap;fillColor=#ffffff;fontColor=#212529;verticalAlign=bottom;align=left;spacing=20;spacingBottom=0;fontSize=14;" parent="1" vertex="1">
          <mxGeometry x="-60" y="-660" width="350" height="180" as="geometry" />
        </mxCell>
        <mxCell id="tZTCFBPOr5Kg1gLBSGt5-86" value="Consulta Pase Diario:" style="html=1;shadow=0;dashed=0;shape=mxgraph.bootstrap.topButton;rSize=5;perimeter=none;whiteSpace=wrap;fillColor=#F7F7F7;strokeColor=#F8F9FA;fontColor=#6C767D;resizeWidth=1;fontSize=18;align=left;spacing=20;" parent="tZTCFBPOr5Kg1gLBSGt5-85" vertex="1">
          <mxGeometry width="350" height="50" relative="1" as="geometry" />
        </mxCell>
        <object placeholders="1" c4Type="Relationship" c4Technology="" c4Description="BOTÓN CONSULTA" label="&lt;div style=&quot;text-align: left&quot;&gt;&lt;div style=&quot;text-align: center&quot;&gt;&lt;b&gt;%c4Description%&lt;/b&gt;&lt;/div&gt;&lt;div style=&quot;text-align: center&quot;&gt;[%c4Technology%]&lt;/div&gt;&lt;/div&gt;" id="tZTCFBPOr5Kg1gLBSGt5-87">
          <mxCell style="edgeStyle=none;rounded=0;html=1;jettySize=auto;orthogonalLoop=1;strokeColor=#707070;strokeWidth=2;fontColor=#707070;jumpStyle=none;dashed=1;metaEdit=1;metaData={&quot;c4Type&quot;:{&quot;editable&quot;:false}};exitX=0.528;exitY=1.127;exitDx=0;exitDy=0;exitPerimeter=0;" parent="1" source="tZTCFBPOr5Kg1gLBSGt5-67" edge="1">
            <mxGeometry x="0.2228" y="-2" width="160" relative="1" as="geometry">
              <mxPoint x="-253.32999999999993" y="-991.2703448275861" as="sourcePoint" />
              <mxPoint x="120" y="-670" as="targetPoint" />
              <mxPoint as="offset" />
            </mxGeometry>
          </mxCell>
        </object>
        <mxCell id="tZTCFBPOr5Kg1gLBSGt5-88" value="&lt;font&gt;&lt;span style=&quot;font-size: 20px&quot;&gt;&lt;b&gt;SELECT * FROM productos;&lt;/b&gt;&lt;/span&gt;&lt;br&gt;&lt;/font&gt;&lt;br&gt;Esta consulta mostrará toda la información de la tabla &quot;producto&quot;, ya que necesitamos mostrar Planes y sus valores.." style="html=1;shadow=0;dashed=0;shape=mxgraph.bootstrap.rrect;rSize=5;strokeColor=#F8F9FA;html=1;whiteSpace=wrap;fillColor=#ffffff;fontColor=#212529;verticalAlign=bottom;align=left;spacing=20;spacingBottom=0;fontSize=14;" parent="1" vertex="1">
          <mxGeometry x="380" y="-660" width="350" height="180" as="geometry" />
        </mxCell>
        <mxCell id="tZTCFBPOr5Kg1gLBSGt5-89" value="Consulta Productos Complementarios:" style="html=1;shadow=0;dashed=0;shape=mxgraph.bootstrap.topButton;rSize=5;perimeter=none;whiteSpace=wrap;fillColor=#F7F7F7;strokeColor=#F8F9FA;fontColor=#6C767D;resizeWidth=1;fontSize=18;align=left;spacing=20;" parent="tZTCFBPOr5Kg1gLBSGt5-88" vertex="1">
          <mxGeometry width="350" height="50" relative="1" as="geometry" />
        </mxCell>
        <object placeholders="1" c4Type="Relationship" c4Technology="" c4Description="BOTÓN CONSULTA" label="&lt;div style=&quot;text-align: left&quot;&gt;&lt;div style=&quot;text-align: center&quot;&gt;&lt;b&gt;%c4Description%&lt;/b&gt;&lt;/div&gt;&lt;div style=&quot;text-align: center&quot;&gt;[%c4Technology%]&lt;/div&gt;&lt;/div&gt;" id="tZTCFBPOr5Kg1gLBSGt5-90">
          <mxCell style="edgeStyle=none;rounded=0;html=1;jettySize=auto;orthogonalLoop=1;strokeColor=#707070;strokeWidth=2;fontColor=#707070;jumpStyle=none;dashed=1;metaEdit=1;metaData={&quot;c4Type&quot;:{&quot;editable&quot;:false}};exitX=0.572;exitY=1.127;exitDx=0;exitDy=0;exitPerimeter=0;entryX=0.477;entryY=-0.104;entryDx=0;entryDy=0;entryPerimeter=0;" parent="1" source="tZTCFBPOr5Kg1gLBSGt5-70" target="tZTCFBPOr5Kg1gLBSGt5-89" edge="1">
            <mxGeometry x="0.2228" y="-2" width="160" relative="1" as="geometry">
              <mxPoint x="203.36000000000013" y="-965.59896" as="sourcePoint" />
              <mxPoint x="130" y="-660" as="targetPoint" />
              <mxPoint as="offset" />
            </mxGeometry>
          </mxCell>
        </object>
        <mxCell id="tZTCFBPOr5Kg1gLBSGt5-94" value="&lt;font style=&quot;font-size: 30px&quot; color=&quot;#ff0505&quot;&gt;Login ADMINISTRADOR&lt;/font&gt;" style="html=1;strokeColor=none;fillColor=#0079D6;labelPosition=center;verticalLabelPosition=middle;verticalAlign=top;align=center;fontSize=12;outlineConnect=0;spacingTop=-6;fontColor=#FFFFFF;shape=mxgraph.sitemap.login;" parent="1" vertex="1">
          <mxGeometry x="1400" y="-1260" width="410" height="170" as="geometry" />
        </mxCell>
        <object placeholders="1" c4Type="Relationship" c4Technology="" c4Description="INICIO SESIÓN" label="&lt;div style=&quot;text-align: left&quot;&gt;&lt;div style=&quot;text-align: center&quot;&gt;&lt;b&gt;%c4Description%&lt;/b&gt;&lt;/div&gt;&lt;div style=&quot;text-align: center&quot;&gt;[%c4Technology%]&lt;/div&gt;&lt;/div&gt;" id="tZTCFBPOr5Kg1gLBSGt5-95">
          <mxCell style="edgeStyle=none;rounded=0;html=1;jettySize=auto;orthogonalLoop=1;strokeColor=#707070;strokeWidth=2;fontColor=#707070;jumpStyle=none;dashed=1;metaEdit=1;metaData={&quot;c4Type&quot;:{&quot;editable&quot;:false}};exitX=0.96;exitY=0.75;exitDx=0;exitDy=0;exitPerimeter=0;entryX=0.5;entryY=0;entryDx=0;entryDy=0;entryPerimeter=0;" parent="1" source="tZTCFBPOr5Kg1gLBSGt5-62" target="tZTCFBPOr5Kg1gLBSGt5-94" edge="1">
            <mxGeometry x="-0.0078" y="10" width="160" relative="1" as="geometry">
              <mxPoint x="1350" y="-1160" as="sourcePoint" />
              <mxPoint x="1460" y="-1130" as="targetPoint" />
              <mxPoint as="offset" />
              <Array as="points">
                <mxPoint x="1605" y="-1460" />
              </Array>
            </mxGeometry>
          </mxCell>
        </object>
        <mxCell id="tZTCFBPOr5Kg1gLBSGt5-97" value="Info" style="html=1;strokeColor=none;fillColor=#0079D6;labelPosition=center;verticalLabelPosition=middle;verticalAlign=top;align=center;fontSize=12;outlineConnect=0;spacingTop=-6;fontColor=#FFFFFF;shape=mxgraph.sitemap.info;" parent="1" vertex="1">
          <mxGeometry x="-150" y="170" width="120" height="70" as="geometry" />
        </mxCell>
        <mxCell id="tZTCFBPOr5Kg1gLBSGt5-98" value="Services" style="html=1;strokeColor=none;fillColor=#0079D6;labelPosition=center;verticalLabelPosition=middle;verticalAlign=top;align=center;fontSize=12;outlineConnect=0;spacingTop=-6;fontColor=#FFFFFF;shape=mxgraph.sitemap.services;" parent="1" vertex="1">
          <mxGeometry x="-150" y="280" width="120" height="70" as="geometry" />
        </mxCell>
        <object placeholders="1" c4Type="Relationship" c4Technology="" c4Description="ABRE PERFIL DE USUARIO" label="&lt;div style=&quot;text-align: left&quot;&gt;&lt;div style=&quot;text-align: center&quot;&gt;&lt;b&gt;%c4Description%&lt;/b&gt;&lt;/div&gt;&lt;div style=&quot;text-align: center&quot;&gt;[%c4Technology%]&lt;/div&gt;&lt;/div&gt;" id="tZTCFBPOr5Kg1gLBSGt5-100">
          <mxCell style="edgeStyle=none;rounded=0;html=1;jettySize=auto;orthogonalLoop=1;strokeColor=#707070;strokeWidth=2;fontColor=#707070;jumpStyle=none;dashed=1;metaEdit=1;metaData={&quot;c4Type&quot;:{&quot;editable&quot;:false}};exitX=0.5;exitY=1;exitDx=0;exitDy=0;exitPerimeter=0;entryX=0.447;entryY=0;entryDx=0;entryDy=0;entryPerimeter=0;" parent="1" source="tZTCFBPOr5Kg1gLBSGt5-94" target="tZTCFBPOr5Kg1gLBSGt5-96" edge="1">
            <mxGeometry x="0.2228" y="-2" width="160" relative="1" as="geometry">
              <mxPoint x="1180" y="-450" as="sourcePoint" />
              <mxPoint x="1915" y="-110" as="targetPoint" />
              <mxPoint as="offset" />
              <Array as="points">
                <mxPoint x="1605" y="-820" />
                <mxPoint x="900" y="-400" />
                <mxPoint x="-180" y="-400" />
              </Array>
            </mxGeometry>
          </mxCell>
        </object>
        <mxCell id="tZTCFBPOr5Kg1gLBSGt5-101" value="&lt;font&gt;&lt;span style=&quot;font-size: 20px&quot;&gt;&lt;b&gt;SELECT * FROM cliente;&lt;/b&gt;&lt;/span&gt;&lt;br&gt;&lt;/font&gt;&lt;br&gt;Esta consulta mostrará toda la información de los &quot;cliente&quot;, su tipo de suscripción y datos." style="html=1;shadow=0;dashed=0;shape=mxgraph.bootstrap.rrect;rSize=5;strokeColor=#F8F9FA;html=1;whiteSpace=wrap;fillColor=#ffffff;fontColor=#212529;verticalAlign=bottom;align=left;spacing=20;spacingBottom=0;fontSize=14;" parent="1" vertex="1">
          <mxGeometry x="1375.55" y="-270" width="350" height="180" as="geometry" />
        </mxCell>
        <mxCell id="tZTCFBPOr5Kg1gLBSGt5-102" value="Consulta Información:" style="html=1;shadow=0;dashed=0;shape=mxgraph.bootstrap.topButton;rSize=5;perimeter=none;whiteSpace=wrap;fillColor=#F7F7F7;strokeColor=#F8F9FA;fontColor=#6C767D;resizeWidth=1;fontSize=18;align=left;spacing=20;" parent="tZTCFBPOr5Kg1gLBSGt5-101" vertex="1">
          <mxGeometry width="350" height="50" relative="1" as="geometry" />
        </mxCell>
        <object placeholders="1" c4Type="Relationship" c4Technology="" c4Description="BOTÓN INFORMACIÓN CLIENTE" label="&lt;div style=&quot;text-align: left&quot;&gt;&lt;div style=&quot;text-align: center&quot;&gt;&lt;b&gt;%c4Description%&lt;/b&gt;&lt;/div&gt;&lt;div style=&quot;text-align: center&quot;&gt;[%c4Technology%]&lt;/div&gt;&lt;/div&gt;" id="tZTCFBPOr5Kg1gLBSGt5-107">
          <mxCell style="edgeStyle=none;rounded=0;html=1;jettySize=auto;orthogonalLoop=1;strokeColor=#707070;strokeWidth=2;fontColor=#707070;jumpStyle=none;dashed=1;metaEdit=1;metaData={&quot;c4Type&quot;:{&quot;editable&quot;:false}};entryX=-0.015;entryY=0.577;entryDx=0;entryDy=0;entryPerimeter=0;exitX=1.063;exitY=0.392;exitDx=0;exitDy=0;exitPerimeter=0;" parent="1" source="H2vJ4n-5Tb2n8xVPc5sO-3" target="tZTCFBPOr5Kg1gLBSGt5-101" edge="1">
            <mxGeometry x="0.2228" y="-2" width="160" relative="1" as="geometry">
              <mxPoint x="3350" y="-850" as="sourcePoint" />
              <mxPoint x="1990" y="-339.9999999999998" as="targetPoint" />
              <mxPoint as="offset" />
              <Array as="points" />
            </mxGeometry>
          </mxCell>
        </object>
        <object placeholders="1" c4Type="Relationship" c4Technology="" c4Description="ABRE PAGINA NUEVO SERVICIO" label="&lt;div style=&quot;text-align: left&quot;&gt;&lt;div style=&quot;text-align: center&quot;&gt;&lt;b&gt;%c4Description%&lt;/b&gt;&lt;/div&gt;&lt;div style=&quot;text-align: center&quot;&gt;[%c4Technology%]&lt;/div&gt;&lt;/div&gt;" id="tZTCFBPOr5Kg1gLBSGt5-108">
          <mxCell style="edgeStyle=none;rounded=0;html=1;jettySize=auto;orthogonalLoop=1;strokeColor=#707070;strokeWidth=2;fontColor=#707070;jumpStyle=none;dashed=1;metaEdit=1;metaData={&quot;c4Type&quot;:{&quot;editable&quot;:false}};exitX=1;exitY=0.5;exitDx=0;exitDy=0;exitPerimeter=0;entryX=0;entryY=0.25;entryDx=0;entryDy=0;entryPerimeter=0;" parent="1" source="tZTCFBPOr5Kg1gLBSGt5-98" target="tZTCFBPOr5Kg1gLBSGt5-111" edge="1">
            <mxGeometry x="0.2228" y="-2" width="160" relative="1" as="geometry">
              <mxPoint x="1910" y="-595" as="sourcePoint" />
              <mxPoint x="2199.3" y="-540" as="targetPoint" />
              <mxPoint as="offset" />
              <Array as="points">
                <mxPoint x="200" y="390" />
              </Array>
            </mxGeometry>
          </mxCell>
        </object>
        <mxCell id="tZTCFBPOr5Kg1gLBSGt5-112" value="Form" style="html=1;strokeColor=none;fillColor=#0079D6;labelPosition=center;verticalLabelPosition=middle;verticalAlign=top;align=center;fontSize=12;outlineConnect=0;spacingTop=-6;fontColor=#FFFFFF;shape=mxgraph.sitemap.form;" parent="1" vertex="1">
          <mxGeometry x="915" y="680" width="120" height="70" as="geometry" />
        </mxCell>
        <mxCell id="tZTCFBPOr5Kg1gLBSGt5-114" value="&lt;font&gt;&lt;span style=&quot;font-size: 20px&quot;&gt;&lt;b&gt;INSERT INTO suscripcion (id, nombre_suscripcion, precio);&lt;/b&gt;&lt;/span&gt;&lt;br&gt;&lt;/font&gt;&lt;br&gt;Este Query sirve para ingresar un nuevo tipo de suscripción." style="html=1;shadow=0;dashed=0;shape=mxgraph.bootstrap.rrect;rSize=5;strokeColor=#F8F9FA;html=1;whiteSpace=wrap;fillColor=#ffffff;fontColor=#212529;verticalAlign=bottom;align=left;spacing=20;spacingBottom=0;fontSize=14;" parent="1" vertex="1">
          <mxGeometry x="1300" y="570" width="540" height="180" as="geometry" />
        </mxCell>
        <mxCell id="tZTCFBPOr5Kg1gLBSGt5-115" value="Ingreso Nueva Suscripción:" style="html=1;shadow=0;dashed=0;shape=mxgraph.bootstrap.topButton;rSize=5;perimeter=none;whiteSpace=wrap;fillColor=#F7F7F7;strokeColor=#F8F9FA;fontColor=#6C767D;resizeWidth=1;fontSize=18;align=left;spacing=20;" parent="tZTCFBPOr5Kg1gLBSGt5-114" vertex="1">
          <mxGeometry width="540" height="50" relative="1" as="geometry" />
        </mxCell>
        <object placeholders="1" c4Type="Relationship" c4Technology="" c4Description="INGRESO NUEVO CLIENTE" label="&lt;div style=&quot;text-align: left&quot;&gt;&lt;div style=&quot;text-align: center&quot;&gt;&lt;b&gt;%c4Description%&lt;/b&gt;&lt;/div&gt;&lt;div style=&quot;text-align: center&quot;&gt;[%c4Technology%]&lt;/div&gt;&lt;/div&gt;" id="tZTCFBPOr5Kg1gLBSGt5-119">
          <mxCell style="edgeStyle=none;rounded=0;html=1;jettySize=auto;orthogonalLoop=1;strokeColor=#707070;strokeWidth=2;fontColor=#707070;jumpStyle=none;dashed=1;metaEdit=1;metaData={&quot;c4Type&quot;:{&quot;editable&quot;:false}};exitX=1;exitY=0.5;exitDx=0;exitDy=0;exitPerimeter=0;entryX=-0.006;entryY=0.283;entryDx=0;entryDy=0;entryPerimeter=0;" parent="1" source="tZTCFBPOr5Kg1gLBSGt5-112" target="tZTCFBPOr5Kg1gLBSGt5-114" edge="1">
            <mxGeometry x="0.2228" y="-2" width="160" relative="1" as="geometry">
              <mxPoint x="2650" y="-530" as="sourcePoint" />
              <mxPoint x="3155" y="-375" as="targetPoint" />
              <mxPoint as="offset" />
            </mxGeometry>
          </mxCell>
        </object>
        <mxCell id="H2vJ4n-5Tb2n8xVPc5sO-1" value="&lt;span style=&quot;font-size: 30px&quot;&gt;INFO CLIENTES:&lt;/span&gt;" style="html=1;strokeColor=none;fillColor=#0079D6;labelPosition=center;verticalLabelPosition=middle;verticalAlign=top;align=center;fontSize=12;outlineConnect=0;spacingTop=-6;fontColor=#FFFFFF;shape=mxgraph.sitemap.info;" vertex="1" parent="1">
          <mxGeometry x="450" y="-80" width="650" height="380" as="geometry" />
        </mxCell>
        <object placeholders="1" c4Type="Relationship" c4Technology="" c4Description="ABRE PAGINA INFORMACIÓN CLIENTES" label="&lt;div style=&quot;text-align: left&quot;&gt;&lt;div style=&quot;text-align: center&quot;&gt;&lt;b&gt;%c4Description%&lt;/b&gt;&lt;/div&gt;&lt;div style=&quot;text-align: center&quot;&gt;[%c4Technology%]&lt;/div&gt;&lt;/div&gt;" id="H2vJ4n-5Tb2n8xVPc5sO-2">
          <mxCell style="edgeStyle=none;rounded=0;html=1;jettySize=auto;orthogonalLoop=1;strokeColor=#707070;strokeWidth=2;fontColor=#707070;jumpStyle=none;dashed=1;metaEdit=1;metaData={&quot;c4Type&quot;:{&quot;editable&quot;:false}};entryX=0;entryY=0.25;entryDx=0;entryDy=0;entryPerimeter=0;exitX=1;exitY=0.5;exitDx=0;exitDy=0;exitPerimeter=0;" edge="1" parent="1" source="tZTCFBPOr5Kg1gLBSGt5-97" target="H2vJ4n-5Tb2n8xVPc5sO-1">
            <mxGeometry x="0.2228" y="-2" width="160" relative="1" as="geometry">
              <mxPoint x="1910" y="-495" as="sourcePoint" />
              <mxPoint x="2415" y="-340" as="targetPoint" />
              <mxPoint as="offset" />
              <Array as="points">
                <mxPoint x="200" y="190" />
              </Array>
            </mxGeometry>
          </mxCell>
        </object>
        <mxCell id="H2vJ4n-5Tb2n8xVPc5sO-3" value="BUSCAR" style="strokeWidth=1;shadow=0;dashed=0;align=center;html=1;shape=mxgraph.mockup.buttons.button;strokeColor=#666666;fontColor=#ffffff;mainText=;buttonStyle=round;fontSize=17;fontStyle=1;fillColor=#008cff;whiteSpace=wrap;" vertex="1" parent="1">
          <mxGeometry x="920" y="70" width="150" height="50" as="geometry" />
        </mxCell>
        <mxCell id="H2vJ4n-5Tb2n8xVPc5sO-4" value="AGREGAR" style="strokeWidth=1;shadow=0;dashed=0;align=center;html=1;shape=mxgraph.mockup.buttons.button;strokeColor=#666666;fontColor=#ffffff;mainText=;buttonStyle=round;fontSize=17;fontStyle=1;fillColor=#008cff;whiteSpace=wrap;" vertex="1" parent="1">
          <mxGeometry x="915" y="150" width="150" height="50" as="geometry" />
        </mxCell>
        <mxCell id="H2vJ4n-5Tb2n8xVPc5sO-5" value="ELIMINAR" style="strokeWidth=1;shadow=0;dashed=0;align=center;html=1;shape=mxgraph.mockup.buttons.button;strokeColor=#666666;fontColor=#ffffff;mainText=;buttonStyle=round;fontSize=17;fontStyle=1;fillColor=#008cff;whiteSpace=wrap;" vertex="1" parent="1">
          <mxGeometry x="920" y="230" width="150" height="50" as="geometry" />
        </mxCell>
        <mxCell id="H2vJ4n-5Tb2n8xVPc5sO-6" value="&lt;font&gt;&lt;span style=&quot;font-size: 20px&quot;&gt;&lt;b&gt;INSERT INTO cliente (id, nombre, apellido, telefono, email, dia_pago_suscripcion, usuario_activo);&lt;/b&gt;&lt;/span&gt;&lt;br&gt;&lt;/font&gt;&lt;br&gt;Este Query sirve para ingresar un nuevo cliente." style="html=1;shadow=0;dashed=0;shape=mxgraph.bootstrap.rrect;rSize=5;strokeColor=#F8F9FA;html=1;whiteSpace=wrap;fillColor=#ffffff;fontColor=#212529;verticalAlign=bottom;align=left;spacing=20;spacingBottom=0;fontSize=14;" vertex="1" parent="1">
          <mxGeometry x="1370" y="30" width="540" height="180" as="geometry" />
        </mxCell>
        <mxCell id="H2vJ4n-5Tb2n8xVPc5sO-7" value="Agregar Nuevo cliente:" style="html=1;shadow=0;dashed=0;shape=mxgraph.bootstrap.topButton;rSize=5;perimeter=none;whiteSpace=wrap;fillColor=#F7F7F7;strokeColor=#F8F9FA;fontColor=#6C767D;resizeWidth=1;fontSize=18;align=left;spacing=20;" vertex="1" parent="H2vJ4n-5Tb2n8xVPc5sO-6">
          <mxGeometry width="540" height="50" relative="1" as="geometry" />
        </mxCell>
        <object placeholders="1" c4Type="Relationship" c4Technology="" c4Description="AGREGAR NUEVO CLIENTE" label="&lt;div style=&quot;text-align: left&quot;&gt;&lt;div style=&quot;text-align: center&quot;&gt;&lt;b&gt;%c4Description%&lt;/b&gt;&lt;/div&gt;&lt;div style=&quot;text-align: center&quot;&gt;[%c4Technology%]&lt;/div&gt;&lt;/div&gt;" id="H2vJ4n-5Tb2n8xVPc5sO-8">
          <mxCell style="edgeStyle=none;rounded=0;html=1;jettySize=auto;orthogonalLoop=1;strokeColor=#707070;strokeWidth=2;fontColor=#707070;jumpStyle=none;dashed=1;metaEdit=1;metaData={&quot;c4Type&quot;:{&quot;editable&quot;:false}};entryX=-0.006;entryY=0.429;entryDx=0;entryDy=0;entryPerimeter=0;exitX=0.997;exitY=0.688;exitDx=0;exitDy=0;exitPerimeter=0;" edge="1" parent="1" source="H2vJ4n-5Tb2n8xVPc5sO-4" target="H2vJ4n-5Tb2n8xVPc5sO-6">
            <mxGeometry x="0.2228" y="-2" width="160" relative="1" as="geometry">
              <mxPoint x="2700" y="-1050" as="sourcePoint" />
              <mxPoint x="2976.76" y="-974.06" as="targetPoint" />
              <mxPoint as="offset" />
              <Array as="points" />
            </mxGeometry>
          </mxCell>
        </object>
        <mxCell id="H2vJ4n-5Tb2n8xVPc5sO-9" value="&lt;font&gt;&lt;span style=&quot;font-size: 20px&quot;&gt;&lt;b&gt;DELETE FROM cliente WHERE ID = 13.992.802-4;&lt;/b&gt;&lt;/span&gt;&lt;br&gt;&lt;/font&gt;&lt;br&gt;Este Query sirve para ELIMINAR un cliente de RUT 13.992.802-4." style="html=1;shadow=0;dashed=0;shape=mxgraph.bootstrap.rrect;rSize=5;strokeColor=#F8F9FA;html=1;whiteSpace=wrap;fillColor=#ffffff;fontColor=#212529;verticalAlign=bottom;align=left;spacing=20;spacingBottom=0;fontSize=14;" vertex="1" parent="1">
          <mxGeometry x="1370" y="290" width="540" height="180" as="geometry" />
        </mxCell>
        <mxCell id="H2vJ4n-5Tb2n8xVPc5sO-10" value="Borrar Nuevo cliente:" style="html=1;shadow=0;dashed=0;shape=mxgraph.bootstrap.topButton;rSize=5;perimeter=none;whiteSpace=wrap;fillColor=#F7F7F7;strokeColor=#F8F9FA;fontColor=#6C767D;resizeWidth=1;fontSize=18;align=left;spacing=20;" vertex="1" parent="H2vJ4n-5Tb2n8xVPc5sO-9">
          <mxGeometry width="540" height="50" relative="1" as="geometry" />
        </mxCell>
        <object placeholders="1" c4Type="Relationship" c4Technology="" c4Description="AGREGAR NUEVO CLIENTE" label="&lt;div style=&quot;text-align: left&quot;&gt;&lt;div style=&quot;text-align: center&quot;&gt;&lt;b&gt;%c4Description%&lt;/b&gt;&lt;/div&gt;&lt;div style=&quot;text-align: center&quot;&gt;[%c4Technology%]&lt;/div&gt;&lt;/div&gt;" id="H2vJ4n-5Tb2n8xVPc5sO-11">
          <mxCell style="edgeStyle=none;rounded=0;html=1;jettySize=auto;orthogonalLoop=1;strokeColor=#707070;strokeWidth=2;fontColor=#707070;jumpStyle=none;dashed=1;metaEdit=1;metaData={&quot;c4Type&quot;:{&quot;editable&quot;:false}};entryX=-0.006;entryY=0.429;entryDx=0;entryDy=0;entryPerimeter=0;exitX=1.016;exitY=0.808;exitDx=0;exitDy=0;exitPerimeter=0;" edge="1" parent="1" target="H2vJ4n-5Tb2n8xVPc5sO-9" source="H2vJ4n-5Tb2n8xVPc5sO-5">
            <mxGeometry x="0.2228" y="-2" width="160" relative="1" as="geometry">
              <mxPoint x="2730" y="-826.4257022908675" as="sourcePoint" />
              <mxPoint x="2986.76" y="-764.06" as="targetPoint" />
              <mxPoint as="offset" />
              <Array as="points">
                <mxPoint x="1270" y="270" />
              </Array>
            </mxGeometry>
          </mxCell>
        </object>
        <mxCell id="H2vJ4n-5Tb2n8xVPc5sO-13" value="Form" style="html=1;strokeColor=none;fillColor=#0079D6;labelPosition=center;verticalLabelPosition=middle;verticalAlign=top;align=center;fontSize=12;outlineConnect=0;spacingTop=-6;fontColor=#FFFFFF;shape=mxgraph.sitemap.form;" vertex="1" parent="1">
          <mxGeometry x="915" y="770" width="120" height="70" as="geometry" />
        </mxCell>
        <mxCell id="H2vJ4n-5Tb2n8xVPc5sO-14" value="&lt;font&gt;&lt;span style=&quot;font-size: 20px&quot;&gt;&lt;b&gt;INSERT INTO pase_diario (id, fecha);&lt;/b&gt;&lt;/span&gt;&lt;br&gt;&lt;/font&gt;&lt;br&gt;Este Query sirve para ingresar un nuevo cliente." style="html=1;shadow=0;dashed=0;shape=mxgraph.bootstrap.rrect;rSize=5;strokeColor=#F8F9FA;html=1;whiteSpace=wrap;fillColor=#ffffff;fontColor=#212529;verticalAlign=bottom;align=left;spacing=20;spacingBottom=0;fontSize=14;" vertex="1" parent="1">
          <mxGeometry x="1300" y="840" width="540" height="180" as="geometry" />
        </mxCell>
        <mxCell id="H2vJ4n-5Tb2n8xVPc5sO-15" value="Ingreso Nuevo Pase Diario:" style="html=1;shadow=0;dashed=0;shape=mxgraph.bootstrap.topButton;rSize=5;perimeter=none;whiteSpace=wrap;fillColor=#F7F7F7;strokeColor=#F8F9FA;fontColor=#6C767D;resizeWidth=1;fontSize=18;align=left;spacing=20;" vertex="1" parent="H2vJ4n-5Tb2n8xVPc5sO-14">
          <mxGeometry width="540" height="50" relative="1" as="geometry" />
        </mxCell>
        <object placeholders="1" c4Type="Relationship" c4Technology="" c4Description="INGRESO NUEVO CLIENTE" label="&lt;div style=&quot;text-align: left&quot;&gt;&lt;div style=&quot;text-align: center&quot;&gt;&lt;b&gt;%c4Description%&lt;/b&gt;&lt;/div&gt;&lt;div style=&quot;text-align: center&quot;&gt;[%c4Technology%]&lt;/div&gt;&lt;/div&gt;" id="H2vJ4n-5Tb2n8xVPc5sO-16">
          <mxCell style="edgeStyle=none;rounded=0;html=1;jettySize=auto;orthogonalLoop=1;strokeColor=#707070;strokeWidth=2;fontColor=#707070;jumpStyle=none;dashed=1;metaEdit=1;metaData={&quot;c4Type&quot;:{&quot;editable&quot;:false}};exitX=1;exitY=0.5;exitDx=0;exitDy=0;exitPerimeter=0;entryX=0;entryY=0.896;entryDx=0;entryDy=0;entryPerimeter=0;" edge="1" parent="1" source="H2vJ4n-5Tb2n8xVPc5sO-13" target="H2vJ4n-5Tb2n8xVPc5sO-15">
            <mxGeometry x="0.2228" y="-2" width="160" relative="1" as="geometry">
              <mxPoint x="2720" y="-125" as="sourcePoint" />
              <mxPoint x="2906.76" y="-259.05999999999995" as="targetPoint" />
              <mxPoint as="offset" />
            </mxGeometry>
          </mxCell>
        </object>
        <mxCell id="H2vJ4n-5Tb2n8xVPc5sO-17" value="&lt;font&gt;&lt;span style=&quot;font-size: 20px&quot;&gt;&lt;b&gt;SELECT * FROM producto;&lt;/b&gt;&lt;/span&gt;&lt;br&gt;&lt;/font&gt;&lt;br&gt;Esta consulta mostrará toda la información de los &quot;Productos&quot; del GymASIA." style="html=1;shadow=0;dashed=0;shape=mxgraph.bootstrap.rrect;rSize=5;strokeColor=#F8F9FA;html=1;whiteSpace=wrap;fillColor=#ffffff;fontColor=#212529;verticalAlign=bottom;align=left;spacing=20;spacingBottom=0;fontSize=14;" vertex="1" parent="1">
          <mxGeometry x="1595.5500000000002" y="-1660" width="350" height="180" as="geometry" />
        </mxCell>
        <mxCell id="H2vJ4n-5Tb2n8xVPc5sO-18" value="Consulta Información:" style="html=1;shadow=0;dashed=0;shape=mxgraph.bootstrap.topButton;rSize=5;perimeter=none;whiteSpace=wrap;fillColor=#F7F7F7;strokeColor=#F8F9FA;fontColor=#6C767D;resizeWidth=1;fontSize=18;align=left;spacing=20;" vertex="1" parent="H2vJ4n-5Tb2n8xVPc5sO-17">
          <mxGeometry width="350" height="50" relative="1" as="geometry" />
        </mxCell>
        <object placeholders="1" c4Type="Relationship" c4Technology="" c4Description="BOTÓN BUSCAR PRODUCTO" label="&lt;div style=&quot;text-align: left&quot;&gt;&lt;div style=&quot;text-align: center&quot;&gt;&lt;b&gt;%c4Description%&lt;/b&gt;&lt;/div&gt;&lt;div style=&quot;text-align: center&quot;&gt;[%c4Technology%]&lt;/div&gt;&lt;/div&gt;" id="H2vJ4n-5Tb2n8xVPc5sO-19">
          <mxCell style="edgeStyle=none;rounded=0;html=1;jettySize=auto;orthogonalLoop=1;strokeColor=#707070;strokeWidth=2;fontColor=#707070;jumpStyle=none;dashed=1;metaEdit=1;metaData={&quot;c4Type&quot;:{&quot;editable&quot;:false}};entryX=-0.015;entryY=0.577;entryDx=0;entryDy=0;entryPerimeter=0;exitX=1.063;exitY=0.392;exitDx=0;exitDy=0;exitPerimeter=0;" edge="1" parent="1" target="H2vJ4n-5Tb2n8xVPc5sO-17">
            <mxGeometry x="0.2228" y="-2" width="160" relative="1" as="geometry">
              <mxPoint x="1134.9999999999998" y="-1555.4" as="sourcePoint" />
              <mxPoint x="415.54999999999995" y="-754.9999999999998" as="targetPoint" />
              <mxPoint as="offset" />
              <Array as="points" />
            </mxGeometry>
          </mxCell>
        </object>
      </root>
    </mxGraphModel>
  </diagram>
</mxfile>
